<svg width="39" height="41" viewBox="0 0 39 41" fill="none" xmlns="http://www.w3.org/2000/svg">
<path d="M36.4299 10.8672H2.05493C0.97626 10.8672 0.101807 11.7416 0.101807 12.8203C0.101807 13.899 0.97626 14.7734 2.05493 14.7734H36.4299C37.5086 14.7734 38.3831 13.899 38.3831 12.8203C38.3831 11.7416 37.5086 10.8672 36.4299 10.8672Z" fill="url(#paint0_linear_70_320)"/>
<path d="M4.78931 26.8828C4.90454 29.9892 9.36267 29.9869 9.47681 26.8828V22.1953H4.78931V26.8828Z" fill="#191919"/>
<path d="M29.0081 26.8828C29.1233 29.9892 33.5814 29.9869 33.6956 26.8828V22.1953H29.0081V26.8828Z" fill="#191919"/>
<path d="M16.8987 39.1484C16.8987 39.7956 17.4234 40.3203 18.0706 40.3203H20.4143C21.0615 40.3203 21.5862 39.7956 21.5862 39.1484V32.3516H16.8987V39.1484Z" fill="#191919"/>
<path d="M14.1643 28.8359C14.1643 29.4831 14.689 30.0078 15.3362 30.0078H23.1487C23.7959 30.0078 24.3206 29.4831 24.3206 28.8359V26.8828H14.1643V28.8359Z" fill="url(#paint1_linear_70_320)"/>
<path d="M2.44556 18.6797C2.44556 19.3269 2.97024 19.8516 3.61743 19.8516H11.8206V23.3672C11.8206 24.0144 12.3452 24.5391 12.9924 24.5391H25.4924C26.1396 24.5391 26.6643 24.0144 26.6643 23.3672V19.8516H34.8674C35.5146 19.8516 36.0393 19.3269 36.0393 18.6797V17.1172H2.44556V18.6797Z" fill="#191919"/>
<path d="M33.6956 1.49219C33.6956 0.845 33.1709 0.320312 32.5237 0.320312H5.96118C5.31399 0.320312 4.78931 0.845 4.78931 1.49219V8.52344H33.6956V1.49219ZM10.6487 5.59375C10.0015 5.59375 9.47681 5.06906 9.47681 4.42188C9.53423 2.86906 11.7634 2.86953 11.8206 4.42188C11.8206 5.06906 11.2959 5.59375 10.6487 5.59375ZM22.3661 5.59375H16.1161C14.5629 5.53609 14.5641 3.30711 16.1161 3.25H22.3661C23.9193 3.30766 23.9181 5.53664 22.3661 5.59375ZM27.8363 5.59375C27.5069 5.59383 27.2096 5.45742 26.9967 5.23859C26.2781 4.51766 26.8057 3.24172 27.8356 3.25H27.8364C29.3895 3.30758 29.3884 5.53672 27.8363 5.59375Z" fill="#191919"/>
<defs>
<linearGradient id="paint0_linear_70_320" x1="1.77627" y1="10.9161" x2="2.47261" y2="17.9889" gradientUnits="userSpaceOnUse">
<stop stop-color="#F66234"/>
<stop offset="1" stop-color="#C8370B"/>
</linearGradient>
<linearGradient id="paint1_linear_70_320" x1="14.6086" y1="26.9219" x2="16.1672" y2="32.1723" gradientUnits="userSpaceOnUse">
<stop stop-color="#F66234"/>
<stop offset="1" stop-color="#C8370B"/>
</linearGradient>
</defs>
</svg>
