<svg width="40" height="41" viewBox="0 0 40 41" fill="none" xmlns="http://www.w3.org/2000/svg">
<path d="M17.7294 20.18L19.7631 22.214C20.028 22.4786 20.4574 22.4786 20.722 22.214L22.756 20.18C22.8829 20.0527 22.9543 19.8803 22.9543 19.7006V10.4897H17.5308V19.7006C17.5308 19.8803 17.6022 20.0527 17.7294 20.18Z" fill="url(#paint0_linear_70_270)"/>
<path d="M12.1599 1.93701L14.8106 8.29932C15.0212 8.80469 15.515 9.13397 16.0625 9.13367H24.7624C25.3096 9.13367 25.4637 8.80469 25.6743 8.29932L28.325 1.93701C28.4123 1.72766 28.3891 1.48871 28.2634 1.30011C28.1377 1.11151 27.9262 0.998291 27.6994 0.998291H12.7855C12.5591 0.998291 12.3473 1.11151 12.2215 1.30011C12.0958 1.48871 12.0726 1.72766 12.1599 1.93701Z" fill="#191919"/>
<path d="M3.27356 12.0824L1.83588 13.5207C1.57098 13.7856 1.57098 14.2147 1.83588 14.4796L19.0441 31.6881C19.3621 32.0061 19.793 32.1846 20.2426 32.1846C20.6921 32.1846 21.1233 32.0061 21.441 31.6881L38.6495 14.4796C38.9141 14.2147 38.9141 13.7856 38.6495 13.5207L37.2115 12.0824C37.0843 11.9554 36.9119 11.884 36.7321 11.884C36.5521 11.884 36.3796 11.9554 36.2527 12.0824L20.722 27.6134C20.4574 27.8783 20.028 27.8783 19.7631 27.6134L4.23242 12.0824C4.10516 11.9554 3.93274 11.884 3.75299 11.884C3.57324 11.884 3.40082 11.9554 3.27356 12.0824Z" fill="#191919"/>
<path d="M39.2256 24.7271H32.1147C31.8968 24.7271 31.6924 24.8317 31.5651 25.0081L23.1575 36.6494C23.03 36.826 22.8255 36.9304 22.6079 36.9304H17.8774C17.6595 36.9304 17.455 36.826 17.3278 36.6494L8.92016 25.0081C8.7926 24.8317 8.58813 24.7271 8.37054 24.7271H1.25964C0.885193 24.7271 0.581543 25.0307 0.581543 25.4052V39.6422C0.581543 40.0167 0.885193 40.3203 1.25964 40.3203H39.2256C39.6001 40.3203 39.9034 40.0167 39.9034 39.6422V25.4052C39.9034 25.0307 39.6001 24.7271 39.2256 24.7271Z" fill="#191919"/>
<path d="M8.71719 0.320313C8.34274 0.320313 8.03909 0.623962 8.03909 0.998413V9.39838L7.26456 8.10718C7.14066 7.89783 6.91422 7.77057 6.67068 7.77423C6.42746 7.77759 6.20468 7.91125 6.08719 8.12457C5.96939 8.33758 5.97519 8.59729 6.10184 8.80511L8.13583 12.195C8.14346 12.2075 8.15445 12.2167 8.16299 12.2289C8.17703 12.2487 8.19199 12.2676 8.20816 12.2856C8.23746 12.3198 8.27011 12.3506 8.30551 12.3781C8.32291 12.3915 8.33939 12.4053 8.358 12.4169C8.40652 12.4474 8.4584 12.4715 8.51273 12.4886C8.52127 12.4913 8.52798 12.4974 8.53683 12.4999L8.54263 12.5005C8.59665 12.5148 8.65189 12.5222 8.70743 12.5228L8.71719 12.5237H8.7178C8.7236 12.5237 8.72971 12.5215 8.73581 12.5212C8.7883 12.5203 8.84079 12.5133 8.89175 12.5005C8.90701 12.4965 8.92105 12.4877 8.936 12.4825C8.97812 12.4694 9.01871 12.452 9.05716 12.4306L9.06601 12.4269C9.07272 12.423 9.07578 12.4163 9.08218 12.4123C9.142 12.3732 9.1954 12.3244 9.23996 12.2686C9.25186 12.2536 9.26407 12.2402 9.27475 12.2243C9.28177 12.2139 9.29184 12.2057 9.29825 12.1947L11.3322 8.80481C11.4589 8.59698 11.4647 8.33728 11.3472 8.12427C11.2294 7.91095 11.0066 7.77728 10.7634 7.77393C10.5202 7.77026 10.2934 7.89752 10.1698 8.10687L9.39499 9.39838V0.998413C9.39499 0.623962 9.09164 0.320313 8.71719 0.320313Z" fill="url(#paint1_linear_70_270)"/>
<path d="M29.3851 7.87463C29.0641 8.0672 28.96 8.48376 29.1526 8.80481L31.1866 12.1947C31.1942 12.2072 31.2052 12.2164 31.2134 12.2286C31.2275 12.2484 31.2424 12.2673 31.2586 12.2853C31.2879 12.3195 31.3206 12.3503 31.356 12.3778C31.3733 12.3912 31.3898 12.405 31.4084 12.4166C31.4567 12.4471 31.5088 12.4712 31.5632 12.4883C31.5717 12.491 31.5784 12.4971 31.587 12.4996L31.5931 12.5002C31.6468 12.5145 31.7023 12.5218 31.7579 12.5228L31.7679 12.5237H31.7686C31.7747 12.5237 31.7805 12.5215 31.7866 12.5212C31.839 12.5203 31.8915 12.5133 31.9425 12.5005C31.9578 12.4965 31.9718 12.4877 31.9871 12.4825C32.0289 12.4694 32.0695 12.452 32.1082 12.4306L32.1168 12.4269C32.1235 12.423 32.1265 12.4163 32.1329 12.4123C32.1927 12.3732 32.2462 12.3244 32.2907 12.2686C32.3026 12.2536 32.3148 12.2402 32.3255 12.2243C32.3328 12.2139 32.3426 12.2057 32.349 12.1947L34.383 8.80481C34.5099 8.59698 34.5154 8.33728 34.3979 8.12427C34.2801 7.91095 34.0574 7.77728 33.8141 7.77393C33.5709 7.77026 33.3442 7.89752 33.2206 8.10687L32.4457 9.39838V0.998413C32.4457 0.623962 32.1424 0.320312 31.7679 0.320312C31.3935 0.320312 31.0898 0.623962 31.0898 0.998413V9.39838L30.3153 8.10718C30.2228 7.95306 30.0727 7.84198 29.8984 7.79834C29.7239 7.7547 29.5392 7.78217 29.3851 7.87463Z" fill="url(#paint2_linear_70_270)"/>
<defs>
<linearGradient id="paint0_linear_70_270" x1="17.768" y1="10.6391" x2="26.1757" y2="14.603" gradientUnits="userSpaceOnUse">
<stop stop-color="#F66234"/>
<stop offset="1" stop-color="#C8370B"/>
</linearGradient>
<linearGradient id="paint1_linear_70_270" x1="6.24015" y1="0.473134" x2="14.7232" y2="4.38438" gradientUnits="userSpaceOnUse">
<stop stop-color="#F66234"/>
<stop offset="1" stop-color="#C8370B"/>
</linearGradient>
<linearGradient id="paint2_linear_70_270" x1="29.2933" y1="0.473134" x2="37.7739" y2="4.38157" gradientUnits="userSpaceOnUse">
<stop stop-color="#F66234"/>
<stop offset="1" stop-color="#C8370B"/>
</linearGradient>
</defs>
</svg>
