<svg width="38" height="41" viewBox="0 0 38 41" fill="none" xmlns="http://www.w3.org/2000/svg">
<path fill-rule="evenodd" clip-rule="evenodd" d="M9.26216 26.668L8.75824 28.5478C8.64116 28.9846 8.18779 29.2461 7.75099 29.1291C7.31471 29.0122 7.05303 28.5586 7.16999 28.1224L7.88677 25.4486C8.00386 25.0119 8.45709 24.7503 8.89384 24.8673L19.4024 27.6831L29.9117 24.8672C30.3481 24.7503 30.801 25.0123 30.9179 25.4486L31.6346 28.1222C31.7517 28.5591 31.4905 29.0125 31.0533 29.1292C30.6162 29.2459 30.1635 28.985 30.0464 28.5479L29.5425 26.668L19.6239 29.3257C19.4814 29.3639 19.3304 29.3659 19.1876 29.3276L9.26216 26.668Z" fill="#191919"/>
<path fill-rule="evenodd" clip-rule="evenodd" d="M27.1051 4.79565C26.0218 4.79565 25.1401 5.67728 25.1401 6.76089C25.1402 7.84444 26.0217 8.72612 27.105 8.72612C28.1884 8.72601 29.0699 7.8445 29.0699 6.76089C29.07 5.67722 28.1883 4.79568 27.1051 4.79565Z" fill="url(#paint0_linear_455_1763)"/>
<path fill-rule="evenodd" clip-rule="evenodd" d="M11.6992 3.83591C13.3125 3.83583 14.6241 5.14808 14.6241 6.76101C14.6242 8.37383 13.3125 9.6862 11.6993 9.68609C10.0869 9.68609 8.77438 8.37397 8.77438 6.76101C8.77449 5.14808 10.0868 3.83591 11.6992 3.83591ZM5.39551 0.320557V13.2013H23.9237H33.409V0.320557H5.39551ZM16.4774 6.76101C16.4775 5.14808 17.789 3.83591 19.4022 3.83591C21.0155 3.83583 22.327 5.14808 22.327 6.76101C22.327 8.37383 21.0155 9.6862 19.4022 9.68609C17.789 9.68609 16.4774 8.37397 16.4774 6.76101ZM24.1803 6.76101C24.1803 5.14808 25.4919 3.83591 27.1051 3.83591C28.7176 3.83583 30.03 5.14808 30.03 6.76101C30.0301 8.37383 28.7175 9.6862 27.1052 9.68609C25.4918 9.68609 24.1803 8.37397 24.1803 6.76101Z" fill="#191919"/>
<path fill-rule="evenodd" clip-rule="evenodd" d="M11.6994 4.79565C10.6161 4.79565 9.73438 5.67728 9.73438 6.76089C9.73448 7.84444 10.616 8.72612 11.6993 8.72612C12.7834 8.72601 13.665 7.8445 13.665 6.76089C13.6652 5.67722 12.7834 4.79568 11.6994 4.79565Z" fill="url(#paint1_linear_455_1763)"/>
<path fill-rule="evenodd" clip-rule="evenodd" d="M17.4373 6.76089C17.4373 7.84444 18.3189 8.72612 19.4022 8.72612C20.4855 8.72602 21.3671 7.8445 21.3671 6.76089C21.3671 5.67722 20.4855 4.79568 19.4022 4.79565C18.319 4.79565 17.4373 5.67728 17.4373 6.76089Z" fill="url(#paint2_linear_455_1763)"/>
<path fill-rule="evenodd" clip-rule="evenodd" d="M23.4438 14.1614H15.3608V15.9422C15.3608 16.9241 16.1599 17.7229 17.1415 17.7229L21.663 17.7228C22.6447 17.7228 23.4437 16.9241 23.4437 15.9422L23.4438 14.1614Z" fill="#191919"/>
<path fill-rule="evenodd" clip-rule="evenodd" d="M18.5906 18.6826L18.5907 23.6466C18.5907 24.0941 18.9547 24.4585 19.4022 24.4585C19.8497 24.4584 20.2138 24.0942 20.2138 23.6466V18.6826H18.5906Z" fill="#191919"/>
<path fill-rule="evenodd" clip-rule="evenodd" d="M31.129 36.3592L7.67795 36.3592L7.66567 36.3593L7.65285 36.3592L3.98082 36.3591H3.96897H2.78492C1.69337 36.3591 0.804199 37.2477 0.804199 38.3398L0.80428 40.3204H38.0007V38.3398C38.0007 37.2477 37.1115 36.3592 36.0199 36.3592H34.8302H31.1512L31.1393 36.3593L31.129 36.3592Z" fill="#191919"/>
<path fill-rule="evenodd" clip-rule="evenodd" d="M34.3497 30.9768H29.6567L31.4613 35.3993H34.3497V30.9768Z" fill="#191919"/>
<path fill-rule="evenodd" clip-rule="evenodd" d="M13.731 28.9988L13.7311 35.3994L25.0737 35.3993L25.0737 28.9988L19.9073 30.3831C19.5792 30.471 19.2327 30.473 18.9043 30.3851L13.731 28.9988Z" fill="#191919"/>
<path fill-rule="evenodd" clip-rule="evenodd" d="M4.45459 30.9768V35.3994H7.34289L9.14759 30.9768H4.45459Z" fill="#191919"/>
<defs>
<linearGradient id="paint0_linear_455_1763" x1="25.312" y1="4.84488" x2="28.9026" y2="8.56558" gradientUnits="userSpaceOnUse">
<stop stop-color="#F66234"/>
<stop offset="1" stop-color="#C8370B"/>
</linearGradient>
<linearGradient id="paint1_linear_455_1763" x1="9.90631" y1="4.84488" x2="13.4968" y2="8.56639" gradientUnits="userSpaceOnUse">
<stop stop-color="#F66234"/>
<stop offset="1" stop-color="#C8370B"/>
</linearGradient>
<linearGradient id="paint2_linear_455_1763" x1="17.6092" y1="4.84488" x2="21.1997" y2="8.56563" gradientUnits="userSpaceOnUse">
<stop stop-color="#F66234"/>
<stop offset="1" stop-color="#C8370B"/>
</linearGradient>
</defs>
</svg>
