<svg width="41" height="41" viewBox="0 0 41 41" fill="none" xmlns="http://www.w3.org/2000/svg">
<path d="M28.8139 28.8916L20.9568 31.7487V40.3202L27.9159 37.8222C28.4583 37.6053 28.8139 37.08 28.8139 36.4958V28.8916Z" fill="#191919"/>
<path d="M11.6709 28.8916L19.528 31.7487V40.3202L12.5689 37.8222C12.0265 37.6053 11.6709 37.08 11.6709 36.4958V28.8916Z" fill="#191919"/>
<path d="M12.3853 27.4631L20.2424 30.3202L28.0995 27.4631L20.773 24.7101C20.4324 24.5712 20.0524 24.5712 19.7118 24.7101L12.3853 27.4631Z" fill="#191919"/>
<path d="M10.2424 4.60603H1.671C0.882025 4.60603 0.242432 3.96643 0.242432 3.17746V0.320312H11.671V3.17746C11.671 3.96643 11.0314 4.60603 10.2424 4.60603Z" fill="#191919"/>
<path d="M25.806 18.2523L24.3774 15.3952C24.1347 14.9111 23.6408 14.6056 23.0995 14.6056H21.6709V11.4852C21.2219 11.6453 20.7457 11.7484 20.2424 11.7484C19.739 11.7484 19.2628 11.6452 18.8138 11.4851V14.6056H17.3852C16.8439 14.6056 16.3501 14.9111 16.1073 15.3952L14.6787 18.2523C14.4779 18.6548 14.4779 19.1278 14.6787 19.5302L16.1073 22.3874C16.4603 23.094 17.3183 23.3793 18.0242 23.0263C18.7301 22.6734 19.0161 21.8154 18.6631 21.1095L17.554 18.8913L18.2683 17.4627H22.2164L22.9307 18.8913L21.8216 21.1095C21.4686 21.8154 21.7546 22.6734 22.4606 23.0263C22.6656 23.1289 22.8833 23.177 23.0981 23.177C23.6227 23.177 24.1263 22.8882 24.3774 22.3874L25.806 19.5302C26.0069 19.1278 26.0069 18.6548 25.806 18.2523Z" fill="#191919"/>
<path d="M20.2424 3.17746C21.344 3.17746 22.3396 3.60679 23.0995 4.29213V0.320312H17.3853V4.29213C18.1452 3.60679 19.1408 3.17746 20.2424 3.17746Z" fill="#191919"/>
<path d="M20.2424 10.3202C21.8204 10.3202 23.0995 9.04106 23.0995 7.4631C23.0995 5.88514 21.8204 4.60596 20.2424 4.60596C18.6644 4.60596 17.3853 5.88514 17.3853 7.4631C17.3853 9.04106 18.6644 10.3202 20.2424 10.3202Z" fill="url(#paint0_linear_70_379)"/>
<path d="M12.6811 23.5956L9.81306 20.7275C9.39 21.6119 8.67728 22.3246 7.79297 22.7476L10.661 25.6157C10.94 25.8947 11.3055 26.0342 11.6711 26.0342C12.0366 26.0342 12.4021 25.8947 12.6811 25.6157C13.2391 25.0576 13.2391 24.1536 12.6811 23.5956Z" fill="#191919"/>
<path d="M5.95661 14.6059C7.22013 14.6059 8.3457 15.1657 9.13079 16.0383L10.2423 6.03442H1.6709L2.78244 16.0383C3.56752 15.1657 4.6931 14.6059 5.95661 14.6059Z" fill="#191919"/>
<path d="M5.95675 21.7487C7.53471 21.7487 8.8139 20.4695 8.8139 18.8916C8.8139 17.3136 7.53471 16.0344 5.95675 16.0344C4.3788 16.0344 3.09961 17.3136 3.09961 18.8916C3.09961 20.4695 4.3788 21.7487 5.95675 21.7487Z" fill="url(#paint1_linear_70_379)"/>
<path d="M30.2425 4.60603H38.814C39.6029 4.60603 40.2425 3.96643 40.2425 3.17746V0.320312H28.814V3.17746C28.814 3.96643 29.4536 4.60603 30.2425 4.60603Z" fill="#191919"/>
<path d="M30.6718 20.7275L27.8038 23.5956C27.2457 24.1536 27.2457 25.0576 27.8038 25.6157C28.0828 25.8947 28.4483 26.0342 28.8138 26.0342C29.1793 26.0342 29.5449 25.8947 29.8239 25.6157L32.6919 22.7476C31.8076 22.3246 31.0949 21.6119 30.6718 20.7275Z" fill="#191919"/>
<path d="M34.5281 14.6059C35.7917 14.6059 36.9172 15.1657 37.7023 16.0383L38.8139 6.03442H30.2424L31.354 16.0383C32.1391 15.1657 33.2646 14.6059 34.5281 14.6059Z" fill="#191919"/>
<path d="M34.528 21.7487C36.106 21.7487 37.3852 20.4695 37.3852 18.8916C37.3852 17.3136 36.106 16.0344 34.528 16.0344C32.9501 16.0344 31.6709 17.3136 31.6709 18.8916C31.6709 20.4695 32.9501 21.7487 34.528 21.7487Z" fill="url(#paint2_linear_70_379)"/>
<defs>
<linearGradient id="paint0_linear_70_379" x1="17.6352" y1="4.67752" x2="22.8552" y2="10.0878" gradientUnits="userSpaceOnUse">
<stop stop-color="#F66234"/>
<stop offset="1" stop-color="#C8370B"/>
</linearGradient>
<linearGradient id="paint1_linear_70_379" x1="3.34956" y1="16.106" x2="8.5696" y2="21.5162" gradientUnits="userSpaceOnUse">
<stop stop-color="#F66234"/>
<stop offset="1" stop-color="#C8370B"/>
</linearGradient>
<linearGradient id="paint2_linear_70_379" x1="31.9208" y1="16.106" x2="37.1409" y2="21.5162" gradientUnits="userSpaceOnUse">
<stop stop-color="#F66234"/>
<stop offset="1" stop-color="#C8370B"/>
</linearGradient>
</defs>
</svg>
